v -0.46875 0.46875 -0.46875
v -0.46875 0.46875 0.46875
v 0.46875 0.46875 0.46875
v 0.46875 0.46875 -0.46875
v -0.46875 0.11458 -0.46875
v 0.46875 0.11458 -0.46875
v 0.46875 0.11458 0.46875
v -0.46875 0.11458 0.46875
v -0.085938 0.261719 0.46875
v -0.085938 0.261719 0.50000
v 0.085938 0.261719 0.50000
v 0.085938 0.261719 0.46875
v -0.085938 -0.089844 0.46875
v 0.085938 -0.089844 0.46875
v 0.085938 -0.089844 0.50000
v -0.085938 -0.089844 0.50000
v -0.46875 0.11458 -0.46875
v -0.46875 0.11458 0.46875
v 0.46875 0.11458 0.46875
v 0.46875 0.11458 -0.46875
v -0.46875 -0.500000 -0.46875
v 0.46875 -0.500000 -0.46875
v 0.46875 -0.500000 0.46875
v -0.46875 -0.500000 0.46875
vt 0.21875 1.000000
vt 0.21875 0.781250
vt 0.43750 0.781250
vt 0.43750 1.000000
vt 0.43750 1.000000
vt 0.43750 0.781250
vt 0.65625 0.781250
vt 0.65625 1.000000
vt 0.00000 0.781250
vt 0.00000 0.703125
vt 0.21875 0.703125
vt 0.21875 0.781250
vt 0.43750 0.781250
vt 0.43750 0.703125
vt 0.65625 0.703125
vt 0.65625 0.781250
vt 0.65625 0.781250
vt 0.65625 0.703125
vt 0.87500 0.703125
vt 0.87500 0.781250
vt 0.21875 0.781250
vt 0.21875 0.703125
vt 0.43750 0.703125
vt 0.43750 0.781250
vt 0.015625 1.000000
vt 0.015625 0.984375
vt 0.046875 0.984375
vt 0.046875 1.000000
vt 0.03125 0.937500
vt 0.03125 0.921875
vt 0.06250 0.921875
vt 0.06250 0.937500
vt 0.015625 0.984375
vt 0.015625 0.921875
vt 0.031250 0.921875
vt 0.031250 0.984375
vt 0.031250 0.984375
vt 0.031250 0.921875
vt 0.046875 0.921875
vt 0.046875 0.984375
vt 0.015625 0.984375
vt 0.015625 0.921875
vt 0.046875 0.921875
vt 0.046875 0.984375
vt 0.015625 0.984375
vt 0.015625 0.921875
vt 0.046875 0.921875
vt 0.046875 0.984375
vt 0.21875 0.703125
vt 0.21875 0.484375
vt 0.43750 0.484375
vt 0.43750 0.703125
vt 0.43750 0.703125
vt 0.43750 0.484375
vt 0.65625 0.484375
vt 0.65625 0.703125
vt 0.00000 0.484375
vt 0.00000 0.328125
vt 0.21875 0.328125
vt 0.21875 0.484375
vt 0.43750 0.484375
vt 0.43750 0.328125
vt 0.65625 0.328125
vt 0.65625 0.484375
vt 0.65625 0.484375
vt 0.65625 0.328125
vt 0.87500 0.328125
vt 0.87500 0.484375
vt 0.21875 0.484375
vt 0.21875 0.328125
vt 0.43750 0.328125
vt 0.43750 0.484375
vn 0.0000 1.0000 0.0000
vn 0.0000 -1.0000 0.0000
vn -1.0000 0.0000 0.0000
vn 1.0000 0.0000 0.0000
vn 0.0000 0.0000 -1.0000
vn 0.0000 0.0000 1.0000
f 1/1/1 2/2/1 3/3/1
f 3/3/1 4/4/1 1/1/1
f 5/5/2 6/6/2 7/7/2
f 7/7/2 8/8/2 5/5/2
f 1/9/3 5/10/3 8/11/3
f 8/11/3 2/12/3 1/9/3
f 3/13/4 7/14/4 6/15/4
f 6/15/4 4/16/4 3/13/4
f 4/17/5 6/18/5 5/19/5
f 5/19/5 1/20/5 4/17/5
f 2/21/6 8/22/6 7/23/6
f 7/23/6 3/24/6 2/21/6
f 9/25/1 10/26/1 11/27/1
f 11/27/1 12/28/1 9/25/1
f 13/29/2 14/30/2 15/31/2
f 15/31/2 16/32/2 13/29/2
f 9/33/3 13/34/3 16/35/3
f 16/35/3 10/36/3 9/33/3
f 11/37/4 15/38/4 14/39/4
f 14/39/4 12/40/4 11/37/4
f 12/41/5 14/42/5 13/43/5
f 13/43/5 9/44/5 12/41/5
f 10/45/6 16/46/6 15/47/6
f 15/47/6 11/48/6 10/45/6
f 17/49/1 18/50/1 19/51/1
f 19/51/1 20/52/1 17/49/1
f 21/53/2 22/54/2 23/55/2
f 23/55/2 24/56/2 21/53/2
f 17/57/3 21/58/3 24/59/3
f 24/59/3 18/60/3 17/57/3
f 19/61/4 23/62/4 22/63/4
f 22/63/4 20/64/4 19/61/4
f 20/65/5 22/66/5 21/67/5
f 21/67/5 17/68/5 20/65/5
f 18/69/6 24/70/6 23/71/6
f 23/71/6 19/72/6 18/69/6