v 0.500000 0.500000 -0.500000
v 0.500000 -0.500000 -0.500000
v 0.500000 0.500000 0.500000
v 0.500000 -0.500000 0.500000
v -0.500000 0.500000 -0.500000
v -0.500000 -0.500000 -0.500000
v -0.500000 0.500000 0.500000
v -0.500000 -0.500000 0.500000
vt 0.000000 1.000000
vt 1.000000 0.000000
vt 0.000000 0.000000
vt 1.000000 1.000000
vn 0.0000 1.0000 0.0000
vn 0.0000 0.0000 1.0000
vn -1.0000 0.0000 0.0000
vn 0.0000 -1.0000 0.0000
vn 1.0000 0.0000 0.0000
vn 0.0000 0.0000 -1.0000
#haut
f 3/1/1 1/3/1 5/2/1
f 5/2/1 7/4/1 3/1/1
#bas
f 6/1/4 2/3/4 4/2/4
f 4/2/4 8/4/4 6/1/4
#gauche
f 5/1/3 6/3/3 8/2/3
f 8/2/3 7/4/3 5/1/3
#droite
f 3/1/5 4/3/5 2/2/5
f 2/2/5 1/4/5 3/1/5
#devant
f 1/1/6 2/3/6 6/2/6
f 6/2/6 5/4/6 1/1/6
#deriere
f 7/1/2 8/3/2 4/2/2
f 4/2/2 3/4/2 7/1/2