v 0.500000 0.500000 -0.500000 1
v 0.500000 -0.500000 -0.500000 2
v 0.500000 0.500000 0.500000 3
v 0.500000 -0.500000 0.500000 4
v -0.500000 0.500000 -0.500000 5
v -0.500000 -0.500000 -0.500000 6
v -0.500000 0.500000 0.500000 7
v -0.500000 -0.500000 0.500000 8
v 0.500000 0.500000 0.000000 9
v -0.500000 0.500000 0.000000 10
v 0.500000 0.000000 0.000000 11
v -0.500000 0.000000 0.000000 12
v 0.500000 0.000000 0.500000 13
v -0.500000 0.000000 0.500000 14
vt 0.000000 1.000000 1
vt 1.000000 0.000000 2
vt 0.000000 0.000000 3
vt 1.000000 1.000000 4
vt 0.000000 0.500000 5
vt 0.500000 0.000000 6
vt 0.500000 0.500000 7
vt 0.500000 1.000000 8
vt 1.000000 0.500000 9
vn 0.0000 1.0000 0.0000
vn 0.0000 0.0000 1.0000
vn -1.0000 0.0000 0.0000
vn 0.0000 -1.0000 0.0000
vn 1.0000 0.0000 0.0000
vn 0.0000 0.0000 -1.0000
#haut bas
f 13/2/1 11/9/1 12/5/1
f 12/5/1 14/3/1 13/2/1
#haut haut
f 9/9/1 1/4/1 5/1/1
f 5/1/1 10/5/1 9/9/1
#bas
f 6/1/4 2/3/4 4/2/4
f 4/2/4 8/4/4 6/1/4
#gauche
f 5/1/3 6/3/3 8/2/3
f 8/2/3 14/9/3 12/7/3
f 12/7/3 10/8/3 5/1/3
#droite
f 13/9/5 4/2/5 11/7/5
f 9/8/5 11/7/5 1/1/5
f 2/3/5 1/1/5 4/2/5
#deriere
f 1/1/6 2/3/6 6/2/6
f 6/2/6 5/4/6 1/1/6
#devant
f 10/1/2 12/5/2 11/9/2
f 11/9/2 9/4/2 10/1/2
f 14/5/2 8/3/2 4/2/2
f 4/2/2 13/9/2 14/5/2